<svg xmlns="http://www.w3.org/2000/svg" viewBox="0 0 177.9 220.89"><defs><style>.cls-1{fill:#f7931e;}.cls-2{fill:#9e005d;}.cls-3{fill:#d4145a;}.cls-4{fill:#fffdfd;}.cls-5{fill:#fff;}.cls-6{fill:#fbb03b;}.cls-7{fill:none;stroke:#29abe2;stroke-linecap:round;stroke-linejoin:round;stroke-width:4px;}</style></defs><title>Donjon</title><g id="Calque_2" data-name="Calque 2"><g id="Layer_1" data-name="Layer 1"><path class="cls-1" d="M36.73,44.54a27.57,27.57,0,0,1-8.49,8.07,27.44,27.44,0,0,1-10.95,4.2L11.51,44.59,2,24.41a7.13,7.13,0,0,1,2.23-9.84,7,7,0,0,1,5.37-.91,7,7,0,0,1,4.46,3.13L28.17,34.07Z"/><rect class="cls-2" x="42.61" y="173.14" width="19.93" height="47.76"/><rect class="cls-2" x="92.1" y="173.14" width="19.93" height="47.76"/><path class="cls-3" d="M173.58,108.65A86.79,86.79,0,1,1,86.79,21.86,86.79,86.79,0,0,1,173.58,108.65Z"/><rect class="cls-3" x="66.32" y="173.14" width="19.93" height="47.76"/><rect class="cls-3" x="115.54" y="173.14" width="19.93" height="47.76"/><path class="cls-4" d="M80.18,97.17a31.7,31.7,0,1,1-63.39,0,30.8,30.8,0,0,1,1.58-9.82L69,73A31.69,31.69,0,0,1,80.18,97.17Z"/><path d="M53.05,118.32a6.46,6.46,0,1,1-6.46-6.46A6.46,6.46,0,0,1,53.05,118.32Z"/><path d="M73.87,150.12l-26.8,14.7A15.57,15.57,0,0,1,43.89,154a15.25,15.25,0,0,1,.49-2.75,14.77,14.77,0,0,1,.87-2.38,15.25,15.25,0,0,1,2.3-3.58,15.4,15.4,0,0,1,12.14-5.4,15,15,0,0,1,4.89.92l.16.06a16,16,0,0,1,4.63,2.72A15.52,15.52,0,0,1,73.87,150.12Z"/><path class="cls-5" d="M63.93,146.52a2,2,0,0,1-.63.09,2.3,2.3,0,0,1-2.21-1.69l-1.4-5a15,15,0,0,1,4.89.92l.16.06.79,2.84A2.31,2.31,0,0,1,63.93,146.52Z"/><path class="cls-5" d="M48.68,155.47a2.28,2.28,0,0,1-3.25,0L43.89,154a15.25,15.25,0,0,1,.49-2.75,14.77,14.77,0,0,1,.87-2.38l3.41,3.37A2.28,2.28,0,0,1,48.68,155.47Z"/><path class="cls-6" d="M77.39,49.1a30.84,30.84,0,0,1-13.13,1.58,30.89,30.89,0,0,1-12.75-3.59l3-15,5-24.7a8,8,0,0,1,14.15-4.6A8,8,0,0,1,75.6,8.67l1.12,25.18Z"/><polyline class="cls-7" points="19.71 20.23 24.21 11.83 35.73 16.42 44.13 6.72 53.75 12.52"/><path class="cls-3" d="M168.52,181.2a4,4,0,0,1-5.64-.21L134.1,150a4,4,0,0,1,.21-5.63h0a4,4,0,0,1,5.63.2l28.78,31a4,4,0,0,1-.2,5.63Z"/><path class="cls-3" d="M159.47,179.08l0,0,7.6-7.17a5,5,0,0,1,8.27,2.47l2.4,10.18a4.94,4.94,0,0,1-1.43,4.76h0a5,5,0,0,1-4.84,1.15l-9.55-2.86a5,5,0,0,1-2.47-8.51Z"/></g></g></svg>
