<svg xmlns="http://www.w3.org/2000/svg" viewBox="0 0 239.03 259.58"><defs><style>.cls-1{fill:#754c24;}.cls-2{fill:#8c6239;}.cls-3{fill:#fffdfd;}.cls-4{fill:#c69c6d;}.cls-5{fill:#fff;}</style></defs><title>Arene</title><g id="Calque_2" data-name="Calque 2"><g id="Layer_1" data-name="Layer 1"><rect class="cls-1" x="154.22" y="201.34" width="24.3" height="58.24"/><rect class="cls-1" x="93.87" y="201.34" width="24.31" height="58.24"/><circle class="cls-2" cx="133.19" cy="122.69" r="105.84" transform="matrix(0.99, -0.17, 0.17, 0.99, -18.93, 24.44)"/><rect class="cls-2" x="125.32" y="201.34" width="24.3" height="58.24"/><rect class="cls-2" x="65.3" y="201.34" width="24.3" height="58.24"/><path class="cls-3" d="M177.31,135.64a26.78,26.78,0,1,0,53.55,0,25.88,25.88,0,0,0-1.33-8.28l-42.77-12.14A26.79,26.79,0,0,0,177.31,135.64Z"/><path d="M203.11,144.28a5.46,5.46,0,1,0,5.46-5.46A5.45,5.45,0,0,0,203.11,144.28Z"/><path class="cls-4" d="M169.56,75a2,2,0,0,1-1.89-1.33L156.73,42.73a2,2,0,1,1,3.77-1.34l10.95,30.94a2,2,0,0,1-1.22,2.56A2.24,2.24,0,0,1,169.56,75Z"/><path class="cls-4" d="M105.08,63.86a2,2,0,0,1-1.81-1.15L89.38,33A2,2,0,1,1,93,31.28L106.89,61a2,2,0,0,1-1,2.65A1.94,1.94,0,0,1,105.08,63.86Z"/><path class="cls-4" d="M84.13,54a2,2,0,0,1-1.75-1L66.46,24.24A2,2,0,0,1,70,22.3L85.88,51a2,2,0,0,1-.78,2.72A2,2,0,0,1,84.13,54Z"/><path class="cls-4" d="M133.2,32.24a2,2,0,0,1-1.73-1L114.76,3a2,2,0,0,1,3.44-2l16.72,28.24a2,2,0,0,1-.71,2.74A2,2,0,0,1,133.2,32.24Z"/><path class="cls-4" d="M116.46,44.06a2,2,0,0,1-1.8-1.12L100.17,13.49a2,2,0,0,1,3.59-1.76l14.49,29.45a2,2,0,0,1-.91,2.67A2,2,0,0,1,116.46,44.06Z"/><path class="cls-4" d="M102.4,105a1.9,1.9,0,0,1-.92-.23L72.42,89.5A2,2,0,1,1,74.28,86l29.06,15.26a2,2,0,0,1-.94,3.77Z"/><path class="cls-4" d="M143.28,87.27a2,2,0,0,1-1.44-.61L119.05,63a2,2,0,0,1,2.88-2.77l22.79,23.62a2,2,0,0,1-.05,2.82A2,2,0,0,1,143.28,87.27Z"/><path class="cls-4" d="M131.77,106.14a2,2,0,0,1-1.45-.63L107.76,81.67a2,2,0,0,1,2.9-2.75l22.56,23.84a2,2,0,0,1-1.45,3.38Z"/><path class="cls-4" d="M59,94a2.41,2.41,0,0,1-.53-.07L26.83,85.38a2,2,0,1,1,1.05-3.86l31.68,8.56A2,2,0,0,1,59,94Z"/><path class="cls-4" d="M93.55,76.32a2,2,0,0,1-1.27-.46L66.94,55a2,2,0,1,1,2.54-3.09L94.82,72.77a2,2,0,0,1-1.27,3.55Z"/><path class="cls-4" d="M150,30.3a2,2,0,0,1-1.81-1.15L136.75,4.79a2,2,0,0,1,3.62-1.7l11.44,24.36A2,2,0,0,1,150,30.3Z"/><path class="cls-4" d="M167,100.15a2,2,0,0,1-1.71-1l-17-28.1A2,2,0,1,1,151.71,69l16.95,28.11a2,2,0,0,1-.68,2.74A1.94,1.94,0,0,1,167,100.15Z"/><path class="cls-4" d="M176.07,40a2,2,0,0,1-1.86-1.27l-12-30.56A2,2,0,0,1,166,6.71l12,30.56a2,2,0,0,1-1.13,2.59A2.1,2.1,0,0,1,176.07,40Z"/><path class="cls-4" d="M192.3,47.84a2,2,0,0,1-2-1.79L186.94,13.4a2,2,0,0,1,4-.41l3.38,32.65a2,2,0,0,1-1.79,2.19Z"/><path class="cls-4" d="M186.92,98.71a2,2,0,0,1-2-2l-.15-32.82a2,2,0,1,1,4,0l.15,32.82a2,2,0,0,1-2,2Z"/><path class="cls-4" d="M201.53,102.49a1.88,1.88,0,0,1-.94-.24,2,2,0,0,1-.82-2.71l15.54-28.9a2,2,0,1,1,3.52,1.89l-15.54,28.91A2,2,0,0,1,201.53,102.49Z"/><path class="cls-4" d="M200.69,68.53a2,2,0,0,1-1.76-2.94l15.54-28.91A2,2,0,1,1,218,38.57L202.45,67.48A2,2,0,0,1,200.69,68.53Z"/><path class="cls-2" d="M158.89,188.05A34.16,34.16,0,0,0,193,222.21h3.58a34.16,34.16,0,0,0,34.15-34.16h0a34.15,34.15,0,0,0-34.15-34.16H193a34.15,34.15,0,0,0-34.15,34.16Z"/><path d="M178.62,188.05l3.42.76-1,3.06a2.83,2.83,0,0,0,1.8,3.54,3,3,0,0,0,.76.13,2.79,2.79,0,0,0,2.78-1.94l1.15-3.57,18.33,4.06-.18,3.27a2.81,2.81,0,0,0,2.65,3,2.77,2.77,0,0,0,2-.73,2.7,2.7,0,0,0,.91-1.92l.13-2.35,3.58.79a18.79,18.79,0,0,1-3,9.21,19.26,19.26,0,0,1-4.49,4.76l-.16.13A18.33,18.33,0,0,1,201.9,213a18.79,18.79,0,0,1-20-5.59,17,17,0,0,1-1.84-2.49,19.55,19.55,0,0,1-1.51-3A18.94,18.94,0,0,1,178.62,188.05Z"/><path class="cls-5" d="M183.61,195.54a3,3,0,0,1-.76-.13,2.83,2.83,0,0,1-1.8-3.54l1-3.06,5.5,1.22-1.15,3.57A2.79,2.79,0,0,1,183.61,195.54Z"/><path d="M206.37,177.94A8.64,8.64,0,1,0,215,169.3,8.63,8.63,0,0,0,206.37,177.94Z"/><path class="cls-2" d="M11.44,201.23a4.86,4.86,0,0,0,6.87-.25l35.1-37.74a4.86,4.86,0,0,0-.25-6.87h0a4.86,4.86,0,0,0-6.87.25l-35.1,37.75a4.84,4.84,0,0,0,.25,6.86Z"/><path class="cls-2" d="M22.47,198.65l0,0-9.28-8.75a6.07,6.07,0,0,0-10.07,3L.16,205.3a6.08,6.08,0,0,0,1.75,5.82h0a6.07,6.07,0,0,0,5.91,1.4L19.46,209a6,6,0,0,0,3.27-1.8A6.08,6.08,0,0,0,22.47,198.65Z"/><path class="cls-4" d="M221.05,98.69a1.92,1.92,0,0,1-1-.24,2,2,0,0,1-.81-2.71l15.54-28.9a2,2,0,1,1,3.52,1.89L222.81,97.64A2,2,0,0,1,221.05,98.69Z"/><path class="cls-4" d="M66.23,74.79a2.09,2.09,0,0,1-.93-.23L36.24,59.3a2,2,0,1,1,1.86-3.54L67.16,71a2,2,0,0,1-.93,3.77Z"/></g></g></svg>
