<svg xmlns="http://www.w3.org/2000/svg" viewBox="0 0 212.16 88.83"><defs><style>.cls-1{fill:#fffffd;}</style></defs><title>Sopramon Cloud</title><g id="Calque_2" data-name="Calque 2"><g id="Layer_1" data-name="Layer 1"><path class="cls-1" d="M203.28,35.53H149.92A8.88,8.88,0,0,1,141.14,28a7.86,7.86,0,0,0,0-2.62,8.88,8.88,0,0,1,8.78-7.57h52.69a8.89,8.89,0,1,0,0-17.77H18.94a8.89,8.89,0,0,0,0,17.77H41.56a8.87,8.87,0,0,1,8.77,7.57,8.63,8.63,0,0,0,0,2.62,8.87,8.87,0,0,1-8.77,7.57h-22a8.89,8.89,0,1,0,0,17.77h3a8.89,8.89,0,0,1,0,17.77H8.88a8.88,8.88,0,0,0,0,17.76H192.56a8.88,8.88,0,0,0,0-17.76H168.88a8.89,8.89,0,0,1,0-17.77h34.4a8.89,8.89,0,0,0,0-17.77Z"/></g></g></svg>
